<svg version="1.1" viewBox="10.0 10.0 180.0 140.0" fill="none" stroke="none" stroke-linecap="square" stroke-miterlimit="10" xmlns:xlink="http://www.w3.org/1999/xlink" xmlns="http://www.w3.org/2000/svg"><clipPath id="g6056f1958d_0_0.0"><path d="m0 0l960.0 0l0 540.0l-960.0 0l0 -540.0z" clip-rule="nonzero"/></clipPath><g clip-path="url(#g6056f1958d_0_0.0)"><path fill="#ffffff" d="m0 0l960.0 0l0 540.0l-960.0 0z" fill-rule="evenodd"/><path fill="#000000" fill-opacity="0.0" d="m8.380577E-4 17.430553l62.771652 -9.984253l8.0 50.23622l-62.771652 9.984249z" fill-rule="evenodd"/><path fill="#000000" d="m17.313478 30.4679q-1.0237579 -0.16941452 -1.5792751 -0.08105469q-0.83327484 0.13253784 -1.3123236 0.30366135q-0.48150635 0.15569496 -0.5400858 0.085905075q-0.058579445 -0.06978989 -0.08315277 -0.2240963q-0.024572372 -0.1543045 0.056414604 -0.34122276q0.08098698 -0.18691635 0.23038292 -0.24232101q2.2156744 -0.8903465 6.21231 -1.5260372l9.761345 11.420952l0.15431023 -0.024543762l5.39192 -13.831181q3.9966354 -0.6356926 6.379406 -0.47676086q0.3826294 0.018247604 0.46126556 0.51202583q0.044231415 0.27775002 -0.4618492 0.27913857q-0.5085373 -0.014041901 -1.3263817 0.11604118q-0.8178444 0.13008308 -1.6871872 0.63225174l6.3039703 20.609362q0.47896576 1.6167107 1.3249207 1.8618698q0.21534729 0.060676575 0.26203537 0.35385513q0.04668808 0.29318237 -0.1539154 0.3250885l-5.1385307 0.81731796q-0.20060349 0.031906128 -0.24237442 -0.23041153q-0.044231415 -0.27775192 0.010120392 -0.3338623q0.06732559 -0.07399368 0.18094635 -0.15534973q0.37417603 -0.23355103 0.55187225 -1.0054207q0.19067001 -0.7897568 0.14889526 -1.0520744q-0.0442276 -0.27775192 -0.07440567 -0.36788177l-5.4036446 -17.936354l-0.07715607 0.012271881l-5.499832 14.544489q-0.034008026 0.08451462 -0.5611191 0.15253448q-0.5116825 0.06556702 -0.5499153 0.024181366l-10.070068 -12.067989l-0.13887978 0.022090912l0.65089035 18.69231q0.0014781952 0.5060501 0.3873558 1.1408157q0.38342285 0.6193352 0.5980816 0.7750511q0.21466064 0.15571213 0.43000603 0.2163887q0.21534729 0.060676575 0.26203537 0.35385513q0.046689987 0.29318237 -0.1539135 0.3250885l-4.706463 0.7485962q-0.20060349 0.031906128 -0.24237823 -0.23041153q-0.044229507 -0.27775192 0.010122299 -0.3338623q0.06732559 -0.07399368 0.18094444 -0.15534973q0.6761131 -0.42396927 0.6243038 -2.1402626l-0.57100296 -21.568695z" fill-rule="nonzero"/><path fill="#000000" fill-opacity="0.0" d="m32.69105 13.251679l63.401577 -4.503937l3.6220474 50.740158l-63.401577 4.503937z" fill-rule="evenodd"/><path fill="#000000" d="m45.162205 42.68509q0 0 6.469982 -17.76875q0.052330017 -0.14469719 0.566658 -0.18123436q0.514328 -0.03653717 0.5866852 0.09930229l9.162498 16.658249q0.5276375 1.0276947 0.97961426 1.2148857q0.16030502 0.05126953 0.17699432 0.28504944q0.015575409 0.21819687 -0.14028168 0.22926712l-4.223732 0.30004883q-0.15585709 0.011070251 -0.1703186 -0.19153976q-0.014461517 -0.20261002 0.028957367 -0.25268555q0.059005737 -0.051185608 0.15029526 -0.0890007q0.09017563 -0.053398132 0.14806747 -0.12016678q0.40525055 -0.46739197 0.37854767 -0.8414383q-0.027812958 -0.38963318 -0.123542786 -0.6334648l-1.9847679 -3.8847504l-8.431877 0.5989876l-1.3661613 4.1227913q-0.06012726 0.2549019 -0.05122757 0.37958527l0.01001358 0.14027023q0 0 0.0011100769 0.015583038q0.034488678 0.48314667 0.50204086 0.88853455q0.050094604 0.043434143 0.21151733 0.11029053q0.16030502 0.05126953 0.17699432 0.28504944q0.015575409 0.21819305 -0.14028168 0.22926712l-3.6782303 0.26129532q-0.15585709 0.011070251 -0.17032242 -0.19153976q-0.014461517 -0.20261002 0.028957367 -0.25268555q0.059005737 -0.051185608 0.14918137 -0.10458374q0.3629341 -0.18242645 0.7526283 -1.3066177zm4.283016 -6.491684q-0.028945923 0.033382416 -0.008911133 0.09461975q0.018924713 0.045646667 0.050094604 0.043434143l6.6706886 -0.47387695q0.031173706 -0.0022125244 0.0434227 -0.05007553q0.011135101 -0.06344986 -0.022262573 -0.09240341l-3.8905258 -7.1015472l-0.09351349 0.0066432953l-2.748993 7.573206z" fill-rule="nonzero"/><path fill="#000000" fill-opacity="0.0" d="m37.634697 4.503795l63.401573 -4.503937l3.6220474 50.740158l-63.401573 4.503937z" fill-rule="evenodd"/><path fill="#000000" d="m78.709915 16.604258q0.18702698 -0.013286591 0.34509277 0.4454155q0.15805817 0.458704 0.5443268 1.2614746q0 0 0.69794464 1.4385357q0.29499054 0.6212845 0.30055237 0.6992111q0.004447937 0.06234169 -0.25382996 0.17467499q-0.25828552 0.1123333 -0.33621216 0.11787033q-0.124687195 0.008857727 -0.33062744 -0.24280739q-0.20594025 -0.25166512 -0.6991043 -0.5769119q-0.49427032 -0.34083366 -2.55159 -0.19468498l-10.224236 0.72631264l1.6888504 23.658548q0.094566345 1.3247528 1.0296707 2.1355324q0.06790924 0.07349777 0.30947876 0.1659851q0.25715637 0.09138489 0.2816391 0.43426132q0.024475098 0.34287643 -0.22489929 0.3605919l-5.8758163 0.417408q-0.24937057 0.017715454 -0.2716217 -0.2939911q-0.02336502 -0.3272934 0.050113678 -0.3951683q0.08906555 -0.068984985 0.22488403 -0.14129257q0.15140915 -0.07341385 0.35403442 -0.30710602q0.21709442 -0.2503891 0.42307663 -0.8759346q0.20598602 -0.6255417 0.16148376 -1.2489548l-1.6888504 -23.65855l-10.224236 0.72631264q-2.5716438 0.18268394 -3.0392532 1.0931072q-0.22267151 0.3917637 -0.33065796 0.4151001q-0.10910034 0.0077495575 -0.3807335 -0.06694031q-0.27163315 -0.074689865 -0.2760849 -0.13703156q-0.0055618286 -0.077926636 0.19819641 -0.7346401l0.48656464 -1.5226803q0.26944733 -0.83368874 0.34851074 -1.2622433q0.09353256 -0.44524765 0.28947067 -0.5531521l28.973862 -2.0582523z" fill-rule="nonzero"/><path fill="#000000" fill-opacity="0.0" d="m59.573383 10.219658l63.52756 -2.4881892l1.9842529 50.834644l-63.52756 2.4881897z" fill-rule="evenodd"/><path fill="#000000" d="m74.86639 25.04499q-0.28102875 0.011007309 -0.47668457 0.20631409q-0.18004608 0.19469643 -0.16907501 0.4757328l0.63381195 16.237635q0.03717041 0.9524002 0.6860733 1.5524635q0.06427765 0.044391632 0.22345734 0.11634445q0.17478943 0.07133865 0.1845398 0.32114792q0.009750366 0.24980927 -0.14637756 0.25592422l-4.215523 0.16511154q-0.17173767 0.0067253113 -0.18027496 -0.21185684q-0.009140015 -0.23419952 0.035873413 -0.28287125q0.06062317 -0.04928589 0.16808319 -0.10040665q0.10746765 -0.051120758 0.2574997 -0.21336746q0.14942932 -0.17785645 0.32032776 -0.6067505q0.17029572 -0.44450378 0.15261841 -0.89728546l-0.65392303 -16.752867q-0.03717041 -0.9524002 -0.68546295 -1.5368519q-0.064888 -0.060005188 -0.23967743 -0.13134384q-0.15917969 -0.07195091 -0.1683197 -0.30614662q-0.009140015 -0.23419762 0.16259766 -0.24092484l6.6667633 -0.26111794q2.858406 -0.08068085 4.8413467 1.0457001q1.9829407 1.1263828 2.088379 3.8274498q0.124320984 3.1850758 -3.1589737 4.7991867q-1.1964798 0.59415436 -1.8341827 0.6816788q-0.6376953 0.087524414 -0.6364746 0.118751526l0.43069458 0.2176857q0.2715149 0.1457367 1.0927658 0.75468826q0.8368683 0.6083374 1.6642075 1.3734169q0.8273468 0.7650833 1.9757156 2.1430702q1.1483765 1.3779869 1.6983414 2.2477531l1.1360397 1.8632164q0.6347351 1.0384521 1.0293274 1.1324577q0.3945923 0.094005585 0.40616608 0.3906517q0.011581421 0.29664993 -0.16016388 0.30337524l-4.215515 0.16511154q-0.1717453 0.0067253113 -0.18027496 -0.21185684q-0.009140015 -0.23419571 0.051483154 -0.2834816q0.06062317 -0.04928589 0.15247345 -0.099796295q0.10746002 -0.051116943 0.16687012 -0.13162994q0.07501221 -0.08112335 0.050872803 -0.29909515q-0.009147644 -0.23419571 -0.06085968 -0.35726547q-1.0480728 -2.4139557 -2.7739792 -4.5668106q-3.2048264 -3.9869995 -5.4028397 -4.2136497q-0.3140869 -0.03461075 -0.31469727 -0.050224304q-0.040367126 -0.23297119 -0.05621338 -0.6389122l-0.031082153 -0.79626846q-0.004875183 -0.12490463 0.120033264 -0.12979889q3.2006683 -0.12536049 4.94619 -1.4759598q1.335556 -1.0374393 1.2715683 -2.676817q-0.06460571 -1.6549892 -1.4215698 -2.3680534q-1.3569717 -0.7130623 -3.027565 -0.6476307l-2.4044113 0.09417343z" fill-rule="nonzero"/><path fill="#000000" fill-opacity="0.0" d="m77.350105 8.134621l63.49607 -2.96063l2.393692 50.803146l-63.496056 2.9606323z" fill-rule="evenodd"/><path fill="#000000" d="m89.00302 21.73288l5.057007 -0.23579407q0.20290375 -0.009460449 0.21614075 0.27147865q0.012504578 0.26532936 -0.06259918 0.33139992q-0.06022644 0.049734116 -0.18214417 0.11798668q-0.122657776 0.05264473 -0.3160019 0.2650051q-0.17847443 0.19602585 -0.3719864 0.73687553q-0.19424438 0.52524185 -0.16923523 1.0559044l0.9471817 20.102701q0.05368042 1.1393585 0.8381653 1.8535957q0.06537628 0.05952072 0.27268982 0.14370728q0.20732117 0.08418274 0.22129059 0.38072968q0.013969421 0.29654694 -0.18893433 0.3060074l-5.057007 0.23579407q-0.20290375 0.009460449 -0.2154007 -0.25587082q-0.0132369995 -0.2809372 0.04698944 -0.33067322q0.07509613 -0.06607056 0.1977539 -0.11871338q0.121925354 -0.06825256 0.30039215 -0.2642784q0.19334412 -0.21236038 0.3875885 -0.73760223q0.19351196 -0.5408516 0.16851044 -1.0715141l-0.9471817 -20.1027q-0.05368805 -1.1393604 -0.8381729 -1.8535976q-0.06536865 -0.059518814 -0.27268982 -0.14370537q-0.20731354 -0.08418465 -0.22129059 -0.38073158q-0.013969421 -0.29654503 0.18893433 -0.30600548z" fill-rule="nonzero"/><path fill="#000000" fill-opacity="0.0" d="m85.53421 9.545362l63.55905 0.031496048l0 50.866142l-63.55905 -0.031497955z" fill-rule="evenodd"/><path fill="#000000" d="m99.06546 23.49832q-0.734375 -0.2503624 -1.15625 -0.2505722q-0.625 -3.0899048E-4 -1.0 0.06200409q-0.375 0.062314987 -0.421875 0.015417099q-0.03125 -0.062517166 -0.03125 -0.17189217q0 -0.125 0.078125 -0.24995995q0.09375 -0.14057922 0.203125 -0.15615082q1.75 -0.40538216 4.78125 -0.40387917l5.890625 9.612295l0.109375 5.340576E-5l5.6249924 -9.606588q3.03125 0.0015010834 4.78125 0.40861893q0.28125 0.06263924 0.28125 0.43763924q0 0.203125 -0.375 0.14043999q-0.375 -0.06268692 -1.0 -0.06299591q-0.609375 -3.0136108E-4 -1.3125 0.2649746l2.234375 16.016735q0.15625 1.2500763 0.765625 1.5316277q0.140625 0.06257248 0.140625 0.29694748q0 0.21875 -0.140625 0.21867752l-3.90625 -0.0019340515q-0.15625 -7.6293945E-5 -0.15625 -0.2032013q0 -0.203125 0.046875 -0.24997711q0.0625 -0.046844482 0.15625 -0.093673706q0.296875 -0.12485504 0.53125 -0.6716118q0.234375 -0.56238556 0.234375 -0.76551056q0 -0.203125 -0.015625 -0.28125763l-1.890625 -13.9228115l-0.0625 -3.2424927E-5l-5.7812424 10.122135q-0.03125 0.06248474 -0.4375 0.046661377q-0.390625 -0.01581955 -0.40625 -0.04707718l-6.03125 -10.127991l-0.109375 -5.340576E-5l-1.71875 13.921024q-0.0625 0.37496948 0.140625 0.89069366q0.21875 0.5001106 0.359375 0.6408043q0.140625 0.14069366 0.28125 0.21889114q0.15625 0.062576294 0.15625 0.2969513q0 0.21875 -0.140625 0.21868134l-3.578125 -0.0017738342q-0.15625 -7.6293945E-5 -0.15625 -0.2032013q0 -0.20312881 0.046875 -0.24997711q0.0625 -0.046844482 0.15625 -0.093673706q0.546875 -0.23410416 0.71875 -1.4996452l2.109375 -16.045832z" fill-rule="nonzero"/><path fill="#000000" fill-opacity="0.0" d="m109.53421 6.0627246l63.55905 0.031496048l0 50.866142l-63.55905 -0.03149414z" fill-rule="evenodd"/><path fill="#000000" d="m127.237335 36.111504q1.15625 0.4693222 2.25 0.4698639q3.75 0.0018577576 5.96875 -2.2001686q2.234375 -2.2020187 2.234375 -5.9051437q0 -1.265625 -0.65625 -2.6721992q-0.65625 -1.4065762 -1.75 -2.5789928q-1.078125 -1.172409 -2.65625 -1.9231911q-1.578125 -0.766407 -3.578125 -0.76739883q-1.984375 -9.841919E-4 -3.75 1.0137672q-1.765625 0.9991245 -2.734375 2.7798958q-0.953125 1.780777 -0.953125 4.140152q0 2.34375 1.703125 4.563345q1.71875 2.2039757 3.921875 3.0800705zm-4.90625 -0.5493088q-1.3125 -1.3756485 -2.09375 -3.2510376q-0.765625 -1.8753796 -0.765625 -3.8910046q0 -2.015625 0.8125 -3.8277225q0.8125 -1.8277225 2.15625 -3.155182q1.34375 -1.3274593 3.15625 -2.123436q1.828125 -0.795969 3.625 -0.7950783q1.796875 8.8882446E-4 3.359375 0.4704132q3.078125 0.9234009 5.125 3.4556656q2.0625 2.5166473 2.0625 5.9385223q0 2.0 -0.734375 3.8277626q-0.71875 1.8277702 -2.03125 3.248993q-1.296875 1.4056091 -3.28125 2.248375q-1.984375 0.8427658 -4.1875 0.8416748q-2.203125 -0.0010910034 -4.046875 -0.81450653q-1.84375 -0.8134117 -3.15625 -2.173439z" fill-rule="nonzero"/><path fill="#000000" fill-opacity="0.0" d="m132.774 4.250979l63.275604 5.9842525l-4.7874146 50.645668l-63.27558 -5.984253z" fill-rule="evenodd"/><path fill="#000000" d="m142.39575 19.350235l5.0400085 0.47665596q0.20222473 0.019124985 0.17575073 0.29912758q-0.024993896 0.26444626 -0.10865784 0.31931305q-0.06661987 0.04078102 -0.19696045 0.09123421q-0.12884521 0.034898758 -0.3501892 0.2179966q-0.20431519 0.16901398 -0.47207642 0.67731094q-0.26631165 0.49274063 -0.31629944 1.0216331l-1.8939209 20.035683q-0.10734558 1.1355629 0.56874084 1.9528503q0.05633545 0.068107605 0.2497406 0.1805687q0.19340515 0.112457275 0.16546631 0.4080162q-0.027938843 0.29555893 -0.23016357 0.27643204l-5.0400085 -0.47665787q-0.20222473 -0.019123077 -0.17723083 -0.28356934q0.026473999 -0.2800026 0.09310913 -0.32078552q0.08364868 -0.05486679 0.21250916 -0.08976364q0.13032532 -0.050453186 0.3346405 -0.21946716q0.221344 -0.18309784 0.48764038 -0.6758385q0.2677765 -0.50829697 0.31776428 -1.0371895l1.8939209 -20.035685q0.10734558 -1.1355629 -0.56874084 -1.9528503q-0.05633545 -0.068107605 -0.2497406 -0.18056679q-0.19340515 -0.11245918 -0.16546631 -0.4080162q0.027938843 -0.29555702 0.23016357 -0.27643204z" fill-rule="nonzero"/><path fill="#000000" fill-opacity="0.0" d="m140.1873 11.016246l63.086624 7.7480307l-6.173233 50.48819l-63.08661 -7.7480316z" fill-rule="evenodd"/><path fill="#000000" d="m151.95111 25.394354q0.108566284 0.013332367 0.19023132 0.11781883l11.30835 15.399578l0.077545166 0.009525299l1.4488068 -11.849258q0.10241699 -0.83751297 -0.38572693 -1.4799328q-0.04083252 -0.05224228 -0.18833923 -0.13332748q-0.14559937 -0.09659386 -0.11904907 -0.31372643q0.028442383 -0.23264313 0.18353271 -0.21359634l3.7995758 0.4666481q0.15507507 0.019046783 0.12852478 0.23617935q-0.024642944 0.20162392 -0.09237671 0.24053383q-0.050308228 0.025304794 -0.14904785 0.06040573q-0.096847534 0.019590378 -0.27088928 0.15563965q-0.15853882 0.1379528 -0.37654114 0.50473785q-0.21611023 0.3512764 -0.26541138 0.75452423l-2.0044556 16.393538q-0.053100586 0.43426514 -0.17303467 0.5139923q-0.11993408 0.07972336 -0.3680725 0.04924774q-0.24813843 -0.030475616 -0.38615417 -0.18910599l-12.710724 -17.319221l-1.6669006 13.632847q-0.10809326 0.88404083 0.34109497 1.4587097q0.04084778 0.05224228 0.17094421 0.14693451q0.14749146 0.081085205 0.11904907 0.31372452q-0.026550293 0.21713257 -0.18164062 0.19808578l-3.7375336 -0.45902634q-0.15509033 -0.019046783 -0.13043213 -0.2206726q0.024642944 -0.20162201 0.07685852 -0.24243546q0.067733765 -0.038909912 0.16456604 -0.058502197q0.098739624 -0.03509903 0.16836548 -0.0895195q0.64398193 -0.5033798 0.7444916 -1.3253822l1.8318787 -14.982174q0.10618591 -0.8685322 -0.370224 -1.4780293q-0.04084778 -0.05224228 -0.18833923 -0.13332558q-0.14559937 -0.096595764 -0.11906433 -0.31372833q0.028457642 -0.23264313 0.18353271 -0.21359634l2.9466095 0.3618908z" fill-rule="nonzero"/><path fill="#000000" fill-opacity="0.0" d="m162.37187 7.5443697l62.70865 10.551181l-8.440933 50.14173l-62.708664 -10.551178z" fill-rule="evenodd"/><path fill="#000000" d="m182.727 35.719852q1.1248169 0.18925476 1.9889221 -0.42589188q0.072006226 -0.051265717 0.19818115 -0.23601532q0.12615967 -0.1847496 0.41893005 -0.13549042q0.29275513 0.049259186 0.2590332 0.24956512l-0.7522125 4.468376q-0.033721924 0.20030594 -0.31106567 0.15364075q-0.26194763 -0.044075012 -0.3132019 -0.11607742q-0.03326416 -0.08481979 -0.074142456 -0.21845245q-0.025482178 -0.1310463 -0.19465637 -0.34964752q-0.15118408 -0.23141861 -0.6413574 -0.51987076q-0.4747467 -0.28586197 -0.99864197 -0.37400818l-9.722702 -1.6359177l-1.7015686 10.10778l10.231186 1.7214699q1.7411652 0.29296112 2.175644 0.0650177q0.4524994 -0.24075699 0.64549255 -0.44595337q0.20840454 -0.20260239 0.28544617 -0.18964005q0.092453 0.015556335 0.29519653 0.12889099q0.2181549 0.11592865 0.20777893 0.17756271q-0.010375977 0.061634064 -0.31687927 0.5646248l-0.7031708 1.1651001q-0.39666748 0.6621132 -0.56677246 1.0137596q-0.15211487 0.33883286 -0.33198547 0.37194824l-16.332916 -2.7481308q-0.20030212 -0.03370285 -0.15620422 -0.29564285q0.046691895 -0.27734756 0.116104126 -0.3132019q0.0874176 -0.048667908 0.21846008 -0.0741539q0.13365173 -0.04088974 0.3496704 -0.19467926q0.23402405 -0.16660309 0.53533936 -0.6387787q0.3039093 -0.48758316 0.3921051 -1.0114594l3.340866 -19.845762q0.18936157 -1.1247978 -0.42575073 -1.9888344q-0.051254272 -0.07200432 -0.23599243 -0.19815636q-0.18475342 -0.12615204 -0.13546753 -0.41890907q0.04928589 -0.29275513 0.24958801 -0.25905228l16.332916 2.7481308q0.15408325 0.02592659 0.19450378 0.4446869q0.043014526 0.40335274 0.2010498 1.1587963l0.28297424 1.3310261q0.124923706 0.5755844 0.11454773 0.63721657q-0.010375977 0.061632156 -0.25447083 0.09978485q-0.22868347 0.04074478 -0.3057251 0.02778244q-0.06163025 -0.0103702545 -0.1257019 -0.10037422q-0.06147766 -0.10541153 -0.1459961 -0.26223373q-0.06651306 -0.16963768 -0.41784668 -0.5298004q-0.3333435 -0.3729782 -2.0744934 -0.66593933l-10.231186 -1.7214699l-1.2865448 7.6424656l9.722717 1.6359177z" fill-rule="nonzero"/><path fill="#000000" d="m135.31523 56.58039l0 0c8.269608 5.9661255 10.07309 17.594582 4.028183 25.972885c-6.0448914 8.378304 -17.649094 10.3337555 -25.918701 4.36763l5.4015274 -7.4865723c4.134804 2.9830627 9.968742 1.9612122 13.030449 -2.2823715c3.0617218 -4.2435837 2.1918182 -10.101936 -1.9429779 -13.084999z" fill-rule="evenodd"/><path stroke="#000000" stroke-width="2.0" stroke-linejoin="round" stroke-linecap="butt" d="m135.31523 56.58039l0 0c8.269608 5.9661255 10.07309 17.594582 4.028183 25.972885c-6.0448914 8.378304 -17.649094 10.3337555 -25.918701 4.36763l5.4015274 -7.4865723c4.134804 2.9830627 9.968742 1.9612122 13.030449 -2.2823715c3.0617218 -4.2435837 2.1918182 -10.101936 -1.9429779 -13.084999z" fill-rule="evenodd"/><path fill="#ffffff" d="m113.42471 86.920906l0 0c-8.269608 -5.9661255 -10.07309 -17.594582 -4.0281906 -25.972885c6.044899 -8.3783 17.649101 -10.3337555 25.918709 -4.36763l-5.40152 7.4865723c-4.1348114 -2.9830627 -9.968742 -1.9612083 -13.030464 2.2823715c-3.0617218 4.2435837 -2.1918106 10.101936 1.9429932 13.084999z" fill-rule="evenodd"/><path stroke="#000000" stroke-width="2.0" stroke-linejoin="round" stroke-linecap="butt" d="m113.42471 86.920906l0 0c-8.269608 -5.9661255 -10.07309 -17.594582 -4.0281906 -25.972885c6.044899 -8.3783 17.649101 -10.3337555 25.918709 -4.36763l-5.40152 7.4865723c-4.1348114 -2.9830627 -9.968742 -1.9612083 -13.030464 2.2823715c-3.0617218 4.2435837 -2.1918106 10.101936 1.9429932 13.084999z" fill-rule="evenodd"/><path fill="#000000" d="m78.0425 104.6467l0 0c-13.479523 0 -24.471691 -10.727821 -24.70496 -24.110832c-0.23327255 -13.383011 10.378445 -24.48214 23.849888 -24.94534l0.29286194 8.398281l0 0c-8.890259 0.30345917 -15.894024 7.6008835 -15.740643 16.400612c0.15338516 8.799736 7.407299 15.853889 16.302853 15.853889z" fill-rule="evenodd"/><path stroke="#000000" stroke-width="1.0" stroke-linejoin="round" stroke-linecap="butt" d="m78.0425 104.6467l0 0c-13.479523 0 -24.471691 -10.727821 -24.70496 -24.110832c-0.23327255 -13.383011 10.378445 -24.48214 23.849888 -24.94534l0.29286194 8.398281l0 0c-8.890259 0.30345917 -15.894024 7.6008835 -15.740643 16.400612c0.15338516 8.799736 7.407299 15.853889 16.302853 15.853889z" fill-rule="evenodd"/><path fill="#000000" d="m77.031494 55.57484l17.259842 0l0 8.409451l-17.259842 0z" fill-rule="evenodd"/><path stroke="#000000" stroke-width="1.0" stroke-linejoin="round" stroke-linecap="butt" d="m77.031494 55.57484l17.259842 0l0 8.409451l-17.259842 0z" fill-rule="evenodd"/><path fill="#000000" d="m77.031494 96.23626l17.259842 0l0 8.409454l-17.259842 0z" fill-rule="evenodd"/><path stroke="#000000" stroke-width="1.0" stroke-linejoin="round" stroke-linecap="butt" d="m77.031494 96.23626l17.259842 0l0 8.409454l-17.259842 0z" fill-rule="evenodd"/><path fill="#000000" fill-opacity="0.0" d="m76.5389 73.9652l17.259842 0l0 12.220474l-17.259842 0z" fill-rule="evenodd"/><path fill="#000000" fill-opacity="0.0" d="m93.798744 80.07544l0 20.251968" fill-rule="evenodd"/><path stroke="#000000" stroke-width="2.0" stroke-linejoin="round" stroke-linecap="butt" d="m93.798744 80.07544l0 20.251968" fill-rule="evenodd"/><path fill="#000000" fill-opacity="0.0" d="m76.5389 80.07544l17.259842 0" fill-rule="evenodd"/><path stroke="#000000" stroke-width="2.0" stroke-linejoin="round" stroke-linecap="butt" d="m76.5389 80.07544l17.259842 0" fill-rule="evenodd"/><path fill="#000000" d="m92.63801 80.13893l0 0c0 -0.5566406 0.4794464 -1.0078812 1.0708694 -1.0078812l0 0c0.28401184 0 0.55638885 0.10619354 0.7572174 0.29520416c0.20082092 0.18901062 0.3136444 0.4453659 0.3136444 0.712677l0 0c0 0.556633 -0.47943878 1.0078735 -1.0708618 1.0078735l0 0c-0.59142303 0 -1.0708694 -0.45124054 -1.0708694 -1.0078735z" fill-rule="evenodd"/><path fill="#000000" fill-opacity="0.0" d="m76.538055 96.11014l17.259842 0l0 8.409447l-17.259842 0z" fill-rule="evenodd"/><path fill="#000000" fill-opacity="0.0" d="m17.218811 125.103745l168.25197 0l0 58.23622l-168.25197 0z" fill-rule="evenodd"/><path fill="#000000" d="m58.37388 137.63812l0 8.125q0 0.484375 0.3125 0.796875q0.03125 0.015625 0.109375 0.0625q0.09375 0.03125 0.09375 0.15625q0 0.125 -0.09375 0.125l-2.109375 0q-0.078125 0 -0.078125 -0.109375q0 -0.125 0.03125 -0.140625q0.03125 -0.015625 0.078125 -0.03125q0.046875 -0.03125 0.125 -0.109375q0.09375 -0.09375 0.171875 -0.3125q0.09375 -0.21875 0.09375 -0.4375l0 -8.375q0 -0.484375 -0.3125 -0.796875q-0.015625 -0.015625 -0.109375 -0.046875q-0.078125 -0.046875 -0.078125 -0.171875q0 -0.125 0.078125 -0.125l3.5625 0q0.875 0 1.625 0.34375q0.765625 0.328125 1.234375 1.0q0.484375 0.671875 0.484375 1.59375q0 0.921875 -0.4375 1.546875q-0.84375 1.21875 -3.484375 1.203125l-0.875 0q-0.09375 0 -0.09375 -0.171875l0 -0.546875q0 -0.1875 0.09375 -0.1875l0.875 0q2.6875 0 2.6875 -1.90625q0 -0.703125 -0.40625 -1.09375q-0.671875 -0.640625 -1.6875 -0.734375l-1.484375 0q-0.15625 0 -0.28125 0.125q-0.125 0.109375 -0.125 0.21875zm18.896545 8.265625q0 0 4.28125 -9.578125q0.03125 -0.078125 0.3125 -0.078125q0.296875 0 0.328125 0.078125l4.421875 9.578125q0.25 0.59375 0.5 0.71875q0.078125 0.03125 0.078125 0.15625q0 0.125 -0.078125 0.125l-2.359375 0q-0.09375 0 -0.09375 -0.109375q0 -0.125 0.03125 -0.140625q0.03125 -0.015625 0.078125 -0.03125q0.0625 -0.03125 0.09375 -0.0625q0.25 -0.25 0.25 -0.453125q0 -0.21875 -0.046875 -0.359375l-0.953125 -2.234375l-4.6875 0l-0.921875 2.234375q-0.046875 0.140625 -0.046875 0.203125l0 0.078125q0 0 0 0.015625q0 0.265625 0.25 0.515625q0.03125 0.015625 0.109375 0.0625q0.078125 0.03125 0.078125 0.15625q0 0.125 -0.078125 0.125l-2.046875 0q-0.09375 0 -0.09375 -0.109375q0 -0.125 0.03125 -0.140625q0.03125 -0.015625 0.078125 -0.046875q0.21875 -0.09375 0.484375 -0.703125zm2.625 -3.421875q-0.015625 0.015625 -0.015625 0.046875q0.015625 0.03125 0.03125 0.03125l3.71875 0q0.015625 0 0.015625 -0.03125q0.015625 -0.03125 0 -0.046875l-1.875 -4.09375l-0.046875 0l-1.828125 4.09375zm23.202805 -5.171875q-0.125 0 -0.234375 0.09375q-0.09375 0.09375 -0.09375 0.234375l0 8.125q0 0.484375 0.3125 0.796875q0.03125 0.015625 0.109375 0.0625q0.09375 0.03125 0.09375 0.15625q0 0.125 -0.09375 0.125l-2.109375 0q-0.078125 0 -0.078125 -0.109375q0 -0.125 0.03125 -0.140625q0.03125 -0.015625 0.078125 -0.03125q0.046875 -0.03125 0.125 -0.109375q0.09375 -0.09375 0.171875 -0.3125q0.09375 -0.21875 0.09375 -0.4375l0 -8.375q0 -0.484375 -0.3125 -0.796875q-0.015625 -0.015625 -0.109375 -0.046875q-0.078125 -0.046875 -0.078125 -0.15625q0 -0.125 0.078125 -0.125l3.34375 0q1.4375 0 2.390625 0.609375q0.96875 0.59375 0.96875 1.953125q0 1.59375 -1.65625 2.34375q-0.609375 0.265625 -0.9375 0.296875q-0.3125 0.03125 -0.3125 0.046875l0.203125 0.125q0.125 0.078125 0.53125 0.390625q0.40625 0.3125 0.796875 0.71875q0.40625 0.40625 0.953125 1.109375q0.546875 0.703125 0.796875 1.15625l0.546875 0.953125q0.28125 0.53125 0.46875 0.59375q0.203125 0.046875 0.203125 0.203125q0 0.140625 -0.078125 0.140625l-2.109375 0q-0.078125 0 -0.078125 -0.109375q0 -0.125 0.015625 -0.140625q0.03125 -0.015625 0.078125 -0.03125q0.0625 -0.03125 0.09375 -0.0625q0.046875 -0.046875 0.03125 -0.15625q0 -0.125 -0.03125 -0.1875q-0.46875 -1.21875 -1.28125 -2.328125q-1.53125 -2.0625 -2.625 -2.21875q-0.15625 -0.03125 -0.15625 -0.03125q-0.015625 -0.109375 -0.015625 -0.3125l0 -0.40625q0 -0.0625 0.0625 -0.0625q1.609375 0 2.5 -0.640625q0.6875 -0.484375 0.6875 -1.3125q0 -0.828125 -0.671875 -1.203125q-0.65625 -0.390625 -1.5 -0.390625l-1.203125 0zm20.605743 -1.0625l2.109375 0q0.09375 0 0.09375 0.109375q0 0.109375 -0.03125 0.140625q-0.03125 0.015625 -0.09375 0.046875q-0.046875 0.015625 -0.125 0.109375q-0.078125 0.078125 -0.171875 0.296875q-0.09375 0.203125 -0.09375 0.4375l0 8.375q0 0.484375 0.3125 0.796875q0.03125 0.015625 0.109375 0.0625q0.09375 0.03125 0.09375 0.15625q0 0.125 -0.09375 0.125l-2.109375 0q-0.078125 0 -0.078125 -0.109375q0 -0.125 0.03125 -0.140625q0.03125 -0.015625 0.078125 -0.03125q0.046875 -0.03125 0.125 -0.109375q0.09375 -0.09375 0.171875 -0.3125q0.09375 -0.21875 0.09375 -0.4375l0 -8.375q0 -0.484375 -0.3125 -0.796875q-0.015625 -0.015625 -0.109375 -0.046875q-0.078125 -0.046875 -0.078125 -0.171875q0 -0.125 0.078125 -0.125zm18.654716 10.578125q-0.1875 -0.046875 -0.421875 -0.109375q-0.234375 -0.078125 -0.296875 -0.078125l-0.078125 0q-0.234375 0 -0.359375 0.25q0 0.015625 -0.015625 0.015625l-0.1875 0q-0.03125 0 -0.046875 -0.03125l-0.546875 -1.921875q-0.03125 -0.140625 0.1875 -0.140625q0.09375 0 0.125 0.046875q0.03125 0.03125 0.046875 0.046875q0.015625 0.015625 0.0625 0.09375q0.859375 1.046875 2.515625 1.046875q0.875 0 1.4375 -0.453125q0.57814026 -0.453125 0.57814026 -1.34375q0 -0.609375 -0.18751526 -0.90625q-0.1875 -0.296875 -0.3125 -0.4375q-0.265625 -0.328125 -1.25 -0.875q-0.984375 -0.5625 -1.59375 -1.015625q-1.5625 -1.125 -1.5625 -2.3125q0 -1.1875 0.734375 -1.828125q0.75 -0.65625 1.984375 -0.65625q0.6875 0 1.453125 0.359375q0.375 0.1875 0.53125 0.25q0.17189026 0.046875 0.23439026 -0.078125q0.078125 -0.125 0.09375 -0.125q0.28125 -0.03125 0.28125 0.09375l0.203125 2.078125q0 0.0625 -0.296875 0.0625q-0.046875 0 -0.078125 -0.109375q-0.203125 -0.671875 -0.95314026 -1.109375q-0.734375 -0.4375 -1.484375 -0.4375q-1.578125 0 -1.578125 1.296875q0 0.953125 1.71875 1.890625l1.234375 0.65625q1.1406403 0.640625 1.5937653 1.375q0.453125 0.71875 0.453125 1.5625l0 0.0625q-0.15625 1.109375 -0.390625 1.515625q-0.375 0.671875 -1.0781403 1.078125q-0.6875 0.390625 -1.578125 0.390625q-0.484375 -0.015625 -0.796875 -0.09375l-0.375 -0.109375z" fill-rule="nonzero"/><path fill="#000000" fill-opacity="0.0" d="m41.74037 125.49691l118.58267 0.31495667" fill-rule="evenodd"/><path stroke="#000000" stroke-width="1.0" stroke-linejoin="round" stroke-linecap="butt" d="m41.74037 125.49691l118.58267 0.0" fill-rule="evenodd"/><path fill="#000000" fill-opacity="0.0" d="m117.41338 99.06698l17.25985 0l0 -5.1968536l-17.25985 0z" fill-rule="evenodd"/><path fill="#000000" d="m112.244095 96.191605l24.251968 0l0 8.409447l-24.251968 0z" fill-rule="evenodd"/><path stroke="#000000" stroke-width="1.0" stroke-linejoin="round" stroke-linecap="butt" d="m112.244095 96.191605l24.251968 0l0 8.409447l-24.251968 0z" fill-rule="evenodd"/><path fill="#000000" d="m128.5748 88.18899l0 24.251968l-8.409447 0l0 -24.251968z" fill-rule="evenodd"/><path stroke="#000000" stroke-width="1.0" stroke-linejoin="round" stroke-linecap="butt" d="m128.5748 88.18899l0 24.251968l-8.409447 0l0 -24.251968z" fill-rule="evenodd"/></g></svg>