<svg version="1.1" viewBox="350.0 180.0 250.0 160.0" fill="none" stroke="none" stroke-linecap="square" stroke-miterlimit="10" xmlns:xlink="http://www.w3.org/1999/xlink" xmlns="http://www.w3.org/2000/svg"><g clip-path="url(#g6056f1958d_0_0.0)"><path fill="#ffffff" d="m0 0l960.0 0l0 540.0l-960.0 0z" fill-rule="evenodd"/><path fill="#000000" fill-opacity="0.0" d="m367.46014 197.80063l62.771667 -9.984253l8.0 50.23622l-62.771667 9.984253z" fill-rule="evenodd"/><path fill="#000000" d="m384.7728 210.83798q-1.0237732 -0.16941833 -1.5792847 -0.08105469q-0.83325195 0.13253784 -1.3123169 0.30366516q-0.48150635 0.15568542 -0.5400696 0.08589172q-0.05859375 -0.06977844 -0.0831604 -0.22409058q-0.02456665 -0.15431213 0.056396484 -0.34121704q0.08099365 -0.18692017 0.23040771 -0.24232483q2.2156677 -0.89035034 6.212311 -1.5260468l9.761322 11.420959l0.1543274 -0.024551392l5.3919067 -13.831177q3.996643 -0.6356964 6.379425 -0.47676086q0.3826294 0.018249512 0.46124268 0.5120239q0.04425049 0.27775574 -0.46185303 0.2791443q-0.5085144 -0.014038086 -1.326355 0.11604309q-0.8178711 0.13008118 -1.6871948 0.6322479l6.303955 20.60936q0.4789734 1.6167145 1.3249207 1.8618774q0.21536255 0.060668945 0.26205444 0.35385132q0.046691895 0.29318237 -0.15393066 0.3250885l-5.1385193 0.8173218q-0.20062256 0.031906128 -0.2423706 -0.23042297q-0.04425049 -0.27774048 0.010101318 -0.33384705q0.06732178 -0.07400513 0.18093872 -0.15536499q0.37420654 -0.23355103 0.5518799 -1.0054169q0.19067383 -0.78974915 0.14889526 -1.0520782q-0.04421997 -0.27774048 -0.074401855 -0.36787415l-5.4036255 -17.936356l-0.077178955 0.012268066l-5.499817 14.544495q-0.0340271 0.08451843 -0.5611267 0.15252686q-0.51168823 0.06556702 -0.54992676 0.02418518l-10.070068 -12.067993l-0.13885498 0.022094727l0.6508789 18.692322q0.0014648438 0.5060425 0.38735962 1.1408081q0.38342285 0.619339 0.5980835 0.77505493q0.21466064 0.15570068 0.42999268 0.21638489q0.21536255 0.060668945 0.26205444 0.35385132q0.046691895 0.29318237 -0.15393066 0.3250885l-4.7064514 0.7485962q-0.20062256 0.031906128 -0.2423706 -0.23040771q-0.04425049 -0.27775574 0.010101318 -0.3338623q0.06732178 -0.07398987 0.18093872 -0.15534973q0.67611694 -0.42396545 0.6243286 -2.1402588l-0.5710144 -21.568695z" fill-rule="nonzero"/><path fill="#000000" d="m412.62152 223.05518q0 0 6.4699707 -17.768753q0.052337646 -0.1446991 0.5666809 -0.1812439q0.51431274 -0.03652954 0.5866699 0.0993042l9.162506 16.658249q0.5276489 1.0276947 0.97961426 1.2148895q0.16030884 0.05126953 0.17700195 0.28504944q0.015563965 0.21820068 -0.1402893 0.2292633l-4.2237244 0.30004883q-0.15585327 0.011077881 -0.1703186 -0.19152832q-0.014465332 -0.20262146 0.028961182 -0.2527008q0.05899048 -0.05117798 0.15026855 -0.08898926q0.09017944 -0.05340576 0.14807129 -0.12017822q0.40524292 -0.4673767 0.37857056 -0.84143066q-0.027832031 -0.38963318 -0.123565674 -0.6334686l-1.9847717 -3.8847504l-8.431854 0.59898376l-1.3661804 4.1228027q-0.06011963 0.25489807 -0.051208496 0.37957764l0.010009766 0.14027405q0 0 0.0010986328 0.015579224q0.034484863 0.4831543 0.5020447 0.88853455q0.050109863 0.043441772 0.21151733 0.11029053q0.16030884 0.05126953 0.17700195 0.28504944q0.015563965 0.21820068 -0.1402893 0.2292633l-3.6782227 0.26130676q-0.15585327 0.011062622 -0.1703186 -0.19154358q-0.014465332 -0.2026062 0.028961182 -0.25268555q0.05899048 -0.051193237 0.14916992 -0.10458374q0.36294556 -0.18243408 0.7526245 -1.3066101zm4.28302 -6.491699q-0.028961182 0.03338623 -0.008911133 0.09461975q0.018920898 0.045654297 0.050079346 0.043441772l6.6707153 -0.47387695q0.031158447 -0.0022125244 0.043395996 -0.050079346q0.011138916 -0.063446045 -0.022247314 -0.09240723l-3.8905334 -7.101532l-0.09350586 0.0066375732l-2.748993 7.5731964z" fill-rule="nonzero"/><path fill="#000000" fill-opacity="0.0" d="m405.09402 184.87387l63.40155 -4.503937l3.6220703 50.740158l-63.40158 4.503937z" fill-rule="evenodd"/><path fill="#000000" d="m446.16922 196.97433q0.18704224 -0.013290405 0.34509277 0.4454193q0.15808105 0.45869446 0.54434204 1.2614746q0 0 0.697937 1.4385376q0.2949829 0.62127686 0.30056763 0.6992035q0.004425049 0.062347412 -0.2538452 0.17468262q-0.25827026 0.112335205 -0.33621216 0.11785889q-0.124694824 0.008865356 -0.33062744 -0.24279785q-0.20593262 -0.2516632 -0.6990967 -0.57691956q-0.4942627 -0.3408203 -2.5515747 -0.19468689l-10.224243 0.72631836l1.6888428 23.658554q0.094573975 1.3247528 1.0296631 2.1355286q0.06790161 0.07350159 0.30947876 0.1659851q0.25717163 0.09138489 0.28164673 0.43426514q0.024475098 0.34288025 -0.22491455 0.3605957l-5.8757935 0.41740417q-0.24938965 0.017715454 -0.27163696 -0.2939911q-0.023345947 -0.32730103 0.050109863 -0.39517212q0.08908081 -0.068984985 0.22488403 -0.14129639q0.15142822 -0.073410034 0.35403442 -0.3070984q0.21710205 -0.25039673 0.4230957 -0.8759308q0.20596313 -0.6255493 0.1614685 -1.2489624l-1.6888428 -23.658554l-10.224243 0.72631836q-2.5716248 0.18267822 -3.0392456 1.0931091q-0.22268677 0.39175415 -0.33065796 0.4151001q-0.10910034 0.007751465 -0.3807373 -0.06694031q-0.27163696 -0.07469177 -0.27609253 -0.13703918q-0.005554199 -0.077926636 0.19821167 -0.7346344l0.48657227 -1.5226898q0.2694397 -0.8336792 0.34851074 -1.2622375q0.09350586 -0.44525146 0.28945923 -0.55314636l28.973846 -2.058258z" fill-rule="nonzero"/><path fill="#000000" fill-opacity="0.0" d="m427.0327 190.58974l63.527557 -2.4881897l1.9842529 50.83464l-63.527557 2.4881897z" fill-rule="evenodd"/><path fill="#000000" d="m442.3257 205.41507q-0.28103638 0.011001587 -0.47668457 0.20631409q-0.18005371 0.19470215 -0.1690979 0.47573853l0.6338196 16.237625q0.03717041 0.95240784 0.6860657 1.5524597q0.06430054 0.044403076 0.22348022 0.11634827q0.17477417 0.07133484 0.1845398 0.32115173q0.009735107 0.24980164 -0.14639282 0.2559204l-4.215515 0.16511536q-0.17175293 0.006729126 -0.18026733 -0.21185303q-0.009155273 -0.23420715 0.035858154 -0.2828827q0.060638428 -0.04928589 0.16809082 -0.10040283q0.10745239 -0.051116943 0.25750732 -0.21336365q0.14941406 -0.17785645 0.3203125 -0.6067505q0.17028809 -0.44450378 0.15261841 -0.8972931l-0.65390015 -16.752853q-0.037200928 -0.95240784 -0.68548584 -1.53685q-0.06488037 -0.060012817 -0.23968506 -0.13134766q-0.15917969 -0.07196045 -0.16830444 -0.30615234q-0.009155273 -0.2341919 0.16259766 -0.24092102l6.6667786 -0.26112366q2.8583984 -0.08067322 4.841339 1.0457001q1.9829407 1.1263885 2.088379 3.8274536q0.124298096 3.1850739 -3.158966 4.799179q-1.1965027 0.594162 -1.834198 0.6816864q-0.6376953 0.087524414 -0.6364746 0.118759155l0.43069458 0.21768188q0.2715149 0.1457367 1.0927734 0.75468445q0.836853 0.6083374 1.6642151 1.3734131q0.82733154 0.76509094 1.975708 2.1430664q1.1483765 1.3779907 1.6983337 2.247757l1.1360474 1.8632202q0.6347351 1.0384521 1.0293274 1.1324615q0.3945923 0.09399414 0.40615845 0.39065552q0.011566162 0.29664612 -0.16015625 0.30337524l-4.215515 0.1651001q-0.17175293 0.006729126 -0.18029785 -0.21185303q-0.009124756 -0.2341919 0.051483154 -0.28347778q0.060638428 -0.04928589 0.15249634 -0.09979248q0.10745239 -0.051132202 0.16687012 -0.13163757q0.07501221 -0.08111572 0.050872803 -0.29910278q-0.009155273 -0.2341919 -0.06088257 -0.35725403q-1.0480652 -2.4139557 -2.7739563 -4.566818q-3.204834 -3.9869995 -5.4028625 -4.2136536q-0.3140869 -0.034606934 -0.31469727 -0.050216675q-0.04034424 -0.23297119 -0.05621338 -0.638916l-0.031066895 -0.79626465q-0.0048828125 -0.12490845 0.120025635 -0.12980652q3.2006836 -0.12535095 4.9461975 -1.4759521q1.3355408 -1.0374451 1.2715759 -2.6768188q-0.06460571 -1.6549835 -1.4215698 -2.3680573q-1.3569946 -0.7130585 -3.027588 -0.6476288l-2.4043884 0.094177246z" fill-rule="nonzero"/><path fill="#000000" fill-opacity="0.0" d="m444.80942 188.5047l63.496063 -2.9606323l2.3937073 50.803146l-63.496063 2.9606323z" fill-rule="evenodd"/><path fill="#000000" d="m456.46234 202.10295l5.057007 -0.23577881q0.20291138 -0.009475708 0.21612549 0.27146912q0.012512207 0.26533508 -0.06259155 0.33140564q-0.06021118 0.049728394 -0.1821289 0.11798096q-0.122680664 0.052642822 -0.31600952 0.26501465q-0.1784668 0.1960144 -0.37197876 0.7368622q-0.19424438 0.5252533 -0.16925049 1.0559082l0.9471741 20.102707q0.05368042 1.1393585 0.8381653 1.8535919q0.06539917 0.059524536 0.27270508 0.14370728q0.20730591 0.08418274 0.22128296 0.38072205q0.013977051 0.29655457 -0.18893433 0.306015l-5.057007 0.23579407q-0.20291138 0.009460449 -0.21539307 -0.25587463q-0.013244629 -0.28092957 0.04699707 -0.33067322q0.07507324 -0.06607056 0.1977539 -0.11871338q0.121917725 -0.06825256 0.30038452 -0.26428223q0.19335938 -0.21235657 0.38760376 -0.7375946q0.19348145 -0.5408478 0.16848755 -1.071518l-0.9471741 -20.102692q-0.05368042 -1.1393585 -0.8381653 -1.8536072q-0.06536865 -0.059509277 -0.27270508 -0.14369202q-0.20730591 -0.084198 -0.22128296 -0.3807373q-0.013977051 -0.29655457 0.18893433 -0.306015z" fill-rule="nonzero"/><path fill="#000000" fill-opacity="0.0" d="m452.99353 189.91544l63.559082 0.03149414l0 50.86615l-63.559082 -0.03149414z" fill-rule="evenodd"/><path fill="#000000" d="m466.52478 203.8684q-0.734375 -0.25035095 -1.15625 -0.25056458q-0.625 -3.0517578E-4 -1.0 0.06199646q-0.375 0.062316895 -0.421875 0.015426636q-0.03125 -0.06251526 -0.03125 -0.17189026q0 -0.125 0.078125 -0.24996948q0.09375 -0.14057922 0.203125 -0.15614319q1.75 -0.40538025 4.78125 -0.4038849l5.890625 9.612289l0.109375 6.1035156E-5l5.625 -9.606583q3.03125 0.0014953613 4.78125 0.4086151q0.28125 0.06263733 0.28125 0.43763733q0 0.203125 -0.375 0.1404419q-0.375 -0.062683105 -1.0 -0.06300354q-0.609375 -2.89917E-4 -1.3125 0.26498413l2.234375 16.016724q0.15625 1.2500916 0.765625 1.5316315q0.140625 0.062576294 0.140625 0.2969513q0 0.21875 -0.140625 0.2186737l-3.90625 -0.0019378662q-0.15625 -7.6293945E-5 -0.15625 -0.2032013q0 -0.203125 0.046875 -0.24996948q0.0625 -0.046844482 0.15625 -0.093673706q0.296875 -0.12484741 0.53125 -0.6716156q0.234375 -0.5623779 0.234375 -0.7655029q0 -0.203125 -0.015625 -0.28126526l-1.890625 -13.922806l-0.0625 -3.0517578E-5l-5.78125 10.122131q-0.03125 0.06248474 -0.4375 0.046661377q-0.390625 -0.015823364 -0.40625 -0.047073364l-6.03125 -10.127991l-0.109375 -6.1035156E-5l-1.71875 13.9210205q-0.0625 0.37496948 0.140625 0.8907013q0.21875 0.5001068 0.359375 0.6408081q0.140625 0.14068604 0.28125 0.21888733q0.15625 0.062576294 0.15625 0.2969513q0 0.21875 -0.140625 0.2186737l-3.578125 -0.0017700195q-0.15625 -7.6293945E-5 -0.15625 -0.2032013q0 -0.203125 0.046875 -0.24996948q0.0625 -0.046844482 0.15625 -0.093673706q0.546875 -0.2341156 0.71875 -1.499649l2.109375 -16.045837z" fill-rule="nonzero"/><path fill="#000000" fill-opacity="0.0" d="m476.99353 186.4328l63.559082 0.03149414l0 50.86615l-63.559082 -0.03149414z" fill-rule="evenodd"/><path fill="#000000" d="m494.69666 216.48158q1.15625 0.46931458 2.25 0.4698639q3.75 0.0018615723 5.96875 -2.2001648q2.234375 -2.2020264 2.234375 -5.9051514q0 -1.265625 -0.65625 -2.6721954q-0.65625 -1.4065704 -1.75 -2.5789948q-1.078125 -1.172409 -2.65625 -1.9231873q-1.578125 -0.7664032 -3.578125 -0.767395q-1.984375 -9.918213E-4 -3.75 1.0137634q-1.765625 0.999115 -2.734375 2.779892q-0.953125 1.780777 -0.953125 4.140152q0 2.34375 1.703125 4.563339q1.71875 2.2039795 3.921875 3.0800781zm-4.90625 -0.54930115q-1.3125 -1.3756561 -2.09375 -3.2510376q-0.765625 -1.8753815 -0.765625 -3.8910065q0 -2.015625 0.8125 -3.8277283q0.8125 -1.8277283 2.15625 -3.155182q1.34375 -1.3274536 3.15625 -2.1234436q1.828125 -0.7959595 3.625 -0.79507446q1.796875 9.0026855E-4 3.359375 0.4704132q3.078125 0.9234009 5.125 3.4556732q2.0625 2.5166473 2.0625 5.9385223q0 2.0 -0.734375 3.8277588q-0.71875 1.827774 -2.03125 3.248993q-1.296875 1.4056091 -3.28125 2.2483673q-1.984375 0.84277344 -4.1875 0.8416748q-2.203125 -0.001083374 -4.046875 -0.8144989q-1.84375 -0.8134155 -3.15625 -2.1734314z" fill-rule="nonzero"/><path fill="#000000" fill-opacity="0.0" d="m500.23334 184.62106l63.275574 5.984253l-4.7874146 50.64566l-63.275574 -5.984253z" fill-rule="evenodd"/><path fill="#000000" d="m509.85507 199.7203l5.0400085 0.4766693q0.20220947 0.019119263 0.17578125 0.29911804q-0.025024414 0.26445007 -0.10870361 0.31932068q-0.066589355 0.040771484 -0.19696045 0.0912323q-0.12884521 0.03489685 -0.3501587 0.21800232q-0.2043457 0.16900635 -0.47210693 0.6773071q-0.2662964 0.49273682 -0.31628418 1.0216217l-1.8939209 20.03569q-0.10736084 1.1355591 0.5687256 1.9528503q0.05633545 0.068115234 0.24975586 0.18057251q0.19342041 0.112457275 0.16546631 0.40800476q-0.027954102 0.29556274 -0.23016357 0.27644348l-5.0400085 -0.47665405q-0.20223999 -0.019134521 -0.1772461 -0.2835846q0.026489258 -0.27999878 0.09310913 -0.32077026q0.0836792 -0.054870605 0.21252441 -0.089767456q0.13031006 -0.050460815 0.33462524 -0.21946716q0.221344 -0.18310547 0.48764038 -0.6758423q0.26779175 -0.5083008 0.31777954 -1.0371857l1.8939209 -20.03569q0.10733032 -1.1355591 -0.5687561 -1.9528503q-0.05633545 -0.068099976 -0.24972534 -0.18055725q-0.1933899 -0.112472534 -0.16546631 -0.40802002q0.027923584 -0.29556274 0.23016357 -0.27644348z" fill-rule="nonzero"/><path fill="#000000" fill-opacity="0.0" d="m507.64664 191.38632l63.08658 7.7480316l-6.173218 50.48819l-63.08661 -7.7480316z" fill-rule="evenodd"/><path fill="#000000" d="m519.41046 205.76443q0.10852051 0.013336182 0.19018555 0.11781311l11.30835 15.399582l0.07757568 0.009521484l1.4487915 -11.849258q0.10241699 -0.83750916 -0.3857422 -1.4799347q-0.04083252 -0.052230835 -0.18835449 -0.13331604q-0.14556885 -0.09660339 -0.119018555 -0.31373596q0.028442383 -0.2326355 0.18353271 -0.21359253l3.7995605 0.4666443q0.15509033 0.019058228 0.12854004 0.2361908q-0.024658203 0.20161438 -0.09234619 0.24052429q-0.050354004 0.025314331 -0.14910889 0.060409546q-0.09680176 0.019592285 -0.27087402 0.15563965q-0.1585083 0.13795471 -0.37652588 0.5047302q-0.21612549 0.35128784 -0.2654419 0.75453186l-2.0044556 16.39354q-0.053100586 0.43426514 -0.17303467 0.5139923q-0.11993408 0.079711914 -0.368042 0.049240112q-0.24816895 -0.030471802 -0.38616943 -0.18910217l-12.710693 -17.31923l-1.6669312 13.632858q-0.10809326 0.8840332 0.3411255 1.4587097q0.04083252 0.052246094 0.17089844 0.14692688q0.14752197 0.081085205 0.11907959 0.31373596q-0.026550293 0.21713257 -0.18164062 0.19807434l-3.7375488 -0.45903015q-0.15509033 -0.019042969 -0.13043213 -0.22065735q0.024658203 -0.20162964 0.0769043 -0.2424469q0.06768799 -0.038909912 0.16455078 -0.058502197q0.09875488 -0.035095215 0.16833496 -0.089523315q0.64398193 -0.5033722 0.74450684 -1.3253784l1.8318481 -14.982178q0.10620117 -0.8685303 -0.37017822 -1.4780273q-0.04083252 -0.052230835 -0.18835449 -0.13331604q-0.14562988 -0.09660339 -0.11907959 -0.31373596q0.028442383 -0.2326355 0.18353271 -0.21359253l2.9466553 0.3618927z" fill-rule="nonzero"/><path fill="#000000" d="m550.18634 216.08994q1.1248169 0.18925476 1.9888916 -0.42590332q0.072021484 -0.051254272 0.19818115 -0.23600769q0.12615967 -0.18475342 0.4189453 -0.13549805q0.2927246 0.04927063 0.2590332 0.24957275l-0.75219727 4.468384q-0.03375244 0.20030212 -0.3110962 0.15362549q-0.2619629 -0.044067383 -0.3131714 -0.11607361q-0.03326416 -0.08480835 -0.074157715 -0.21844482q-0.02545166 -0.13104248 -0.19464111 -0.34965515q-0.15118408 -0.2314148 -0.6413574 -0.51986694q-0.47479248 -0.28585815 -0.9986572 -0.37400818l-9.722717 -1.63591l-1.7015381 10.107773l10.231201 1.7214661q1.7411499 0.29296875 2.1755981 0.0650177q0.45251465 -0.24075317 0.6455078 -0.44595337q0.20837402 -0.2026062 0.28546143 -0.18963623q0.09240723 0.015548706 0.29516602 0.12889099q0.21820068 0.11593628 0.2078247 0.17756653q-0.010375977 0.06163025 -0.31689453 0.564621l-0.70318604 1.1651001q-0.39666748 0.6621094 -0.56677246 1.0137634q-0.15209961 0.33883667 -0.3319702 0.37194824l-16.332947 -2.7481384q-0.20031738 -0.033706665 -0.15618896 -0.29563904q0.046691895 -0.27734375 0.11608887 -0.3132019q0.087402344 -0.048675537 0.21850586 -0.074157715q0.13360596 -0.040893555 0.34960938 -0.19467163q0.23406982 -0.16661072 0.5354004 -0.6387787q0.30389404 -0.48757935 0.39208984 -1.0114594l3.3408813 -19.845764q0.18933105 -1.1248016 -0.42578125 -1.9888306q-0.05126953 -0.072006226 -0.23602295 -0.1981659q-0.18475342 -0.12614441 -0.13543701 -0.41889954q0.04925537 -0.29275513 0.24957275 -0.25906372l16.332947 2.7481384q0.15405273 0.025924683 0.19445801 0.4446869q0.043029785 0.40335083 0.2010498 1.1587982l0.28302002 1.3310242q0.124938965 0.5755768 0.11456299 0.63720703q-0.010375977 0.061645508 -0.2545166 0.09979248q-0.22869873 0.040740967 -0.3057251 0.027786255q-0.061645508 -0.010375977 -0.12567139 -0.100372314q-0.061523438 -0.10542297 -0.1459961 -0.26223755q-0.06652832 -0.16964722 -0.41784668 -0.5298004q-0.33337402 -0.37298584 -2.074524 -0.66593933l-10.23114 -1.7214661l-1.28656 7.642456l9.722717 1.6359253z" fill-rule="nonzero"/><path fill="#000000" d="m507.85828 240.58234l0 0c11.067078 7.9843903 13.61145 23.365784 5.6830444 34.355255c-7.9284363 10.989502 -23.327332 13.425629 -34.39441 5.441223l7.1778564 -9.949127c5.5723267 4.0202026 13.303223 2.824829 17.267426 -2.6699219c3.9642334 -5.494751 2.6605835 -13.20813 -2.9117432 -17.228317z" fill-rule="evenodd"/><path stroke="#000000" stroke-width="2.0" stroke-linejoin="round" stroke-linecap="butt" d="m507.85828 240.58234l0 0c11.067078 7.9843903 13.61145 23.365784 5.6830444 34.355255c-7.9284363 10.989502 -23.327332 13.425629 -34.39441 5.441223l7.1778564 -9.949127c5.5723267 4.0202026 13.303223 2.824829 17.267426 -2.6699219c3.9642334 -5.494751 2.6605835 -13.20813 -2.9117432 -17.228317z" fill-rule="evenodd"/><path fill="#ffffff" d="m479.1469 280.3788l0 0c-11.067078 -7.9844055 -13.61145 -23.365784 -5.6830444 -34.355286c7.9284363 -10.989487 23.327332 -13.425598 34.39441 -5.4411926l-7.177826 9.949112c-5.572357 -4.0201874 -13.303253 -2.824829 -17.267456 2.6699219c-3.964203 5.4947357 -2.6605835 13.208115 2.9117737 17.228317z" fill-rule="evenodd"/><path stroke="#000000" stroke-width="2.0" stroke-linejoin="round" stroke-linecap="butt" d="m479.1469 280.3788l0 0c-11.067078 -7.9844055 -13.61145 -23.365784 -5.6830444 -34.355286c7.9284363 -10.989487 23.327332 -13.425598 34.39441 -5.4411926l-7.177826 9.949112c-5.572357 -4.0201874 -13.303253 -2.824829 -17.267456 2.6699219c-3.964203 5.4947357 -2.6605835 13.208115 2.9117737 17.228317z" fill-rule="evenodd"/><path fill="#000000" d="m445.50183 285.01678l0 0c-13.64624 0 -24.70868 -10.984894 -24.70868 -24.53543c0 -13.550552 11.062439 -24.535446 24.70868 -24.535446l0 12.267715c-6.870941 0 -12.4409485 5.492447 -12.4409485 12.267731c0 6.7752686 5.5700073 12.2677 12.4409485 12.2677z" fill-rule="evenodd"/><path stroke="#000000" stroke-width="1.0" stroke-linejoin="round" stroke-linecap="butt" d="m445.50183 285.01678l0 0c-13.64624 0 -24.70868 -10.984894 -24.70868 -24.53543c0 -13.550552 11.062439 -24.535446 24.70868 -24.535446l0 12.267715c-6.870941 0 -12.4409485 5.492447 -12.4409485 12.267731c0 6.7752686 5.5700073 12.2677 12.4409485 12.2677z" fill-rule="evenodd"/><path fill="#000000" d="m444.4911 235.94502l17.259857 0l0 12.220474l-17.259857 0z" fill-rule="evenodd"/><path stroke="#000000" stroke-width="1.0" stroke-linejoin="round" stroke-linecap="butt" d="m444.4911 235.94502l17.259857 0l0 12.220474l-17.259857 0z" fill-rule="evenodd"/><path fill="#000000" d="m444.4911 272.7954l17.259857 0l0 12.2204895l-17.259857 0z" fill-rule="evenodd"/><path stroke="#000000" stroke-width="1.0" stroke-linejoin="round" stroke-linecap="butt" d="m444.4911 272.7954l17.259857 0l0 12.2204895l-17.259857 0z" fill-rule="evenodd"/><path stroke="#000000" stroke-width="2.0" stroke-linejoin="round" stroke-linecap="butt" d="m461.25806 260.44553l0 18.330688" fill-rule="evenodd"/><path fill="#000000" fill-opacity="0.0" d="m443.99823 260.44553l17.259827 0" fill-rule="evenodd"/><path stroke="#000000" stroke-width="2.0" stroke-linejoin="round" stroke-linecap="butt" d="m443.99823 260.44553l17.259827 0" fill-rule="evenodd"/><path fill="#000000" d="m460.09732 260.509l0 0c0 -0.5566406 0.47946167 -1.0078735 1.0708618 -1.0078735l0 0c0.2840271 0 0.5563965 0.10620117 0.75723267 0.29519653c0.20083618 0.18902588 0.31365967 0.44537354 0.31365967 0.712677l0 0c0 0.5566406 -0.47946167 1.0078735 -1.0708923 1.0078735l0 0c-0.59140015 0 -1.0708618 -0.4512329 -1.0708618 -1.0078735z" fill-rule="evenodd"/><path fill="#000000" d="m425.8332 313.92822l0 8.125q0 0.484375 0.3125 0.796875q0.03125 0.015625 0.109375 0.0625q0.09375 0.03125 0.09375 0.15625q0 0.125 -0.09375 0.125l-2.109375 0q-0.078125 0 -0.078125 -0.109375q0 -0.125 0.03125 -0.140625q0.03125 -0.015625 0.078125 -0.03125q0.046875 -0.03125 0.125 -0.109375q0.09375 -0.09375 0.171875 -0.3125q0.09375 -0.21875 0.09375 -0.4375l0 -8.375q0 -0.484375 -0.3125 -0.796875q-0.015625 -0.015625 -0.109375 -0.046875q-0.078125 -0.046875 -0.078125 -0.171875q0 -0.125 0.078125 -0.125l3.5625 0q0.875 0 1.625 0.34375q0.765625 0.328125 1.234375 1.0q0.484375 0.671875 0.484375 1.59375q0 0.921875 -0.4375 1.546875q-0.84375 1.21875 -3.484375 1.203125l-0.875 0q-0.09375 0 -0.09375 -0.171875l0 -0.546875q0 -0.1875 0.09375 -0.1875l0.875 0q2.6875 0 2.6875 -1.90625q0 -0.703125 -0.40625 -1.09375q-0.671875 -0.640625 -1.6875 -0.734375l-1.484375 0q-0.15625 0 -0.28125 0.125q-0.125 0.109375 -0.125 0.21875zm18.896545 8.265625q0 0 4.28125 -9.578125q0.03125 -0.078125 0.3125 -0.078125q0.296875 0 0.328125 0.078125l4.421875 9.578125q0.25 0.59375 0.5 0.71875q0.078125 0.03125 0.078125 0.15625q0 0.125 -0.078125 0.125l-2.359375 0q-0.09375 0 -0.09375 -0.109375q0 -0.125 0.03125 -0.140625q0.03125 -0.015625 0.078125 -0.03125q0.0625 -0.03125 0.09375 -0.0625q0.25 -0.25 0.25 -0.453125q0 -0.21875 -0.046875 -0.359375l-0.953125 -2.234375l-4.6875 0l-0.921875 2.234375q-0.046875 0.140625 -0.046875 0.203125l0 0.078125q0 0 0 0.015625q0 0.265625 0.25 0.515625q0.03125 0.015625 0.109375 0.0625q0.078125 0.03125 0.078125 0.15625q0 0.125 -0.078125 0.125l-2.046875 0q-0.09375 0 -0.09375 -0.109375q0 -0.125 0.03125 -0.140625q0.03125 -0.015625 0.078125 -0.046875q0.21875 -0.09375 0.484375 -0.703125zm2.625 -3.421875q-0.015625 0.015625 -0.015625 0.046875q0.015625 0.03125 0.03125 0.03125l3.71875 0q0.015625 0 0.015625 -0.03125q0.015625 -0.03125 0 -0.046875l-1.875 -4.09375l-0.046875 0l-1.828125 4.09375zm23.20282 -5.171875q-0.125 0 -0.234375 0.09375q-0.09375 0.09375 -0.09375 0.234375l0 8.125q0 0.484375 0.3125 0.796875q0.03125 0.015625 0.109375 0.0625q0.09375 0.03125 0.09375 0.15625q0 0.125 -0.09375 0.125l-2.109375 0q-0.078125 0 -0.078125 -0.109375q0 -0.125 0.03125 -0.140625q0.03125 -0.015625 0.078125 -0.03125q0.046875 -0.03125 0.125 -0.109375q0.09375 -0.09375 0.171875 -0.3125q0.09375 -0.21875 0.09375 -0.4375l0 -8.375q0 -0.484375 -0.3125 -0.796875q-0.015625 -0.015625 -0.109375 -0.046875q-0.078125 -0.046875 -0.078125 -0.15625q0 -0.125 0.078125 -0.125l3.34375 0q1.4375 0 2.390625 0.609375q0.96875 0.59375 0.96875 1.953125q0 1.59375 -1.65625 2.34375q-0.609375 0.265625 -0.9375 0.296875q-0.3125 0.03125 -0.3125 0.046875l0.203125 0.125q0.125 0.078125 0.53125 0.390625q0.40625 0.3125 0.796875 0.71875q0.40625 0.40625 0.953125 1.109375q0.546875 0.703125 0.796875 1.15625l0.546875 0.953125q0.28125 0.53125 0.46875 0.59375q0.203125 0.046875 0.203125 0.203125q0 0.140625 -0.078125 0.140625l-2.109375 0q-0.078125 0 -0.078125 -0.109375q0 -0.125 0.015625 -0.140625q0.03125 -0.015625 0.078125 -0.03125q0.0625 -0.03125 0.09375 -0.0625q0.046875 -0.046875 0.03125 -0.15625q0 -0.125 -0.03125 -0.1875q-0.46875 -1.21875 -1.28125 -2.328125q-1.53125 -2.0625 -2.625 -2.21875q-0.15625 -0.03125 -0.15625 -0.03125q-0.015625 -0.109375 -0.015625 -0.3125l0 -0.40625q0 -0.0625 0.0625 -0.0625q1.609375 0 2.5 -0.640625q0.6875 -0.484375 0.6875 -1.3125q0 -0.828125 -0.671875 -1.203125q-0.65625 -0.390625 -1.5 -0.390625l-1.203125 0zm20.605743 -1.0625l2.109375 0q0.09375 0 0.09375 0.109375q0 0.109375 -0.03125 0.140625q-0.03125 0.015625 -0.09375 0.046875q-0.046875 0.015625 -0.125 0.109375q-0.078125 0.078125 -0.171875 0.296875q-0.09375 0.203125 -0.09375 0.4375l0 8.375q0 0.484375 0.3125 0.796875q0.03125 0.015625 0.109375 0.0625q0.09375 0.03125 0.09375 0.15625q0 0.125 -0.09375 0.125l-2.109375 0q-0.078125 0 -0.078125 -0.109375q0 -0.125 0.03125 -0.140625q0.03125 -0.015625 0.078125 -0.03125q0.046875 -0.03125 0.125 -0.109375q0.09375 -0.09375 0.171875 -0.3125q0.09375 -0.21875 0.09375 -0.4375l0 -8.375q0 -0.484375 -0.3125 -0.796875q-0.015625 -0.015625 -0.109375 -0.046875q-0.078125 -0.046875 -0.078125 -0.171875q0 -0.125 0.078125 -0.125zm18.654724 10.578125q-0.1875 -0.046875 -0.421875 -0.109375q-0.234375 -0.078125 -0.296875 -0.078125l-0.078125 0q-0.234375 0 -0.359375 0.25q0 0.015625 -0.015625 0.015625l-0.1875 0q-0.03125 0 -0.046875 -0.03125l-0.546875 -1.921875q-0.03125 -0.140625 0.1875 -0.140625q0.09375 0 0.125 0.046875q0.03125 0.03125 0.046875 0.046875q0.015625 0.015625 0.0625 0.09375q0.859375 1.046875 2.515625 1.046875q0.875 0 1.4374695 -0.453125q0.578125 -0.453125 0.578125 -1.34375q0 -0.609375 -0.1875 -0.90625q-0.1875 -0.296875 -0.3125 -0.4375q-0.265625 -0.328125 -1.2499695 -0.875q-0.984375 -0.5625 -1.59375 -1.015625q-1.5625 -1.125 -1.5625 -2.3125q0 -1.1875 0.734375 -1.828125q0.75 -0.65625 1.984375 -0.65625q0.6875 0 1.4530945 0.359375q0.375 0.1875 0.53125 0.25q0.171875 0.046875 0.234375 -0.078125q0.078125 -0.125 0.09375 -0.125q0.28125 -0.03125 0.28125 0.09375l0.203125 2.078125q0 0.0625 -0.296875 0.0625q-0.046875 0 -0.078125 -0.109375q-0.203125 -0.671875 -0.953125 -1.109375q-0.7343445 -0.4375 -1.4843445 -0.4375q-1.578125 0 -1.578125 1.296875q0 0.953125 1.71875 1.890625l1.234375 0.65625q1.1405945 0.640625 1.5937195 1.375q0.453125 0.71875 0.453125 1.5625l0 0.0625q-0.15625 1.109375 -0.390625 1.515625q-0.375 0.671875 -1.078125 1.078125q-0.6874695 0.390625 -1.5780945 0.390625q-0.484375 -0.015625 -0.796875 -0.09375l-0.375 -0.109375z" fill-rule="nonzero"/><path fill="#000000" fill-opacity="0.0" d="m409.19968 301.78702l118.58267 0.3149414" fill-rule="evenodd"/><path stroke="#000000" stroke-width="1.0" stroke-linejoin="round" stroke-linecap="butt" d="m409.19968 301.78702l118.58267 0" fill-rule="evenodd"/></g></svg>